HIERARCHY
ROOT Hips
{
	OFFSET 0.00000 0.00000 0.00000
	CHANNELS 6 Xposition Yposition Zposition Zrotation Yrotation Xrotation 
	JOINT LHipJoint
	{
		OFFSET 0 0 0
		CHANNELS 3 Zrotation Yrotation Xrotation
		JOINT LeftUpLeg
		{
			OFFSET 1.65674 -1.80282 0.62477
			CHANNELS 3 Zrotation Yrotation Xrotation
			JOINT LeftLeg
			{
				OFFSET 2.59720 -7.13576 0.00000
				CHANNELS 3 Zrotation Yrotation Xrotation
				JOINT LeftFoot
				{
					OFFSET 2.49236 -6.84770 0.00000
					CHANNELS 3 Zrotation Yrotation Xrotation
					JOINT LeftToeBase
					{
						OFFSET 0.19704 -0.54136 2.14581
						CHANNELS 3 Zrotation Yrotation Xrotation
						End Site
						{
							OFFSET 0.00000 -0.00000 1.11249
						}
					}
				}
			}
		}
	}
	JOINT RHipJoint
	{
		OFFSET 0 0 0
		CHANNELS 3 Zrotation Yrotation Xrotation
		JOINT RightUpLeg
		{
			OFFSET -1.61070 -1.80282 0.62476
			CHANNELS 3 Zrotation Yrotation Xrotation
			JOINT RightLeg
			{
				OFFSET -2.59502 -7.12977 0.00000
				CHANNELS 3 Zrotation Yrotation Xrotation
				JOINT RightFoot
				{
					OFFSET -2.46780 -6.78024 0.00000
					CHANNELS 3 Zrotation Yrotation Xrotation
					JOINT RightToeBase
					{
						OFFSET -0.23024 -0.63258 2.13368
						CHANNELS 3 Zrotation Yrotation Xrotation
						End Site
						{
							OFFSET -0.00000 -0.00000 1.11569
						}
					}
				}
			}
		}
	}
	JOINT LowerBack
	{
		OFFSET 0 0 0
		CHANNELS 3 Zrotation Yrotation Xrotation
		JOINT Spine
		{
			OFFSET 0.01961 2.05450 -0.14112
			CHANNELS 3 Zrotation Yrotation Xrotation
			JOINT Spine1
			{
				OFFSET 0.01021 2.06436 -0.05921
				CHANNELS 3 Zrotation Yrotation Xrotation
				JOINT Neck
				{
					OFFSET 0 0 0
					CHANNELS 3 Zrotation Yrotation Xrotation
					JOINT Neck1
					{
						OFFSET 0.00713 1.56711 0.14968
						CHANNELS 3 Zrotation Yrotation Xrotation
						JOINT Head
						{
							OFFSET 0.03429 1.56041 -0.10006
							CHANNELS 3 Zrotation Yrotation Xrotation
							End Site
							{
								OFFSET 0.01305 1.62560 -0.05265
							}
						}
					}
				}
				JOINT LeftShoulder
				{
					OFFSET 0 0 0
					CHANNELS 3 Zrotation Yrotation Xrotation
					JOINT LeftArm
					{
						OFFSET 3.54205 0.90436 -0.17364
						CHANNELS 3 Zrotation Yrotation Xrotation
						JOINT LeftForeArm
						{
							OFFSET 4.86513 -0.00000 -0.00000
							CHANNELS 3 Zrotation Yrotation Xrotation
							JOINT LeftHand
							{
								OFFSET 3.35554 -0.00000 0.00000
								CHANNELS 3 Zrotation Yrotation Xrotation
								JOINT LeftFingerBase
								{
									OFFSET 0 0 0
									CHANNELS 3 Zrotation Yrotation Xrotation
									JOINT LeftHandIndex1
									{
										OFFSET 0.66117 -0.00000 0.00000
										CHANNELS 3 Zrotation Yrotation Xrotation
										End Site
										{
											OFFSET 0.53306 -0.00000 0.00000
										}
									}
								}
								JOINT LThumb
								{
									OFFSET 0 0 0
									CHANNELS 3 Zrotation Yrotation Xrotation
									End Site
									{
										OFFSET 0.54120 -0.00000 0.54120
									}
								}
							}
						}
					}
				}
				JOINT RightShoulder
				{
					OFFSET 0 0 0
					CHANNELS 3 Zrotation Yrotation Xrotation
					JOINT RightArm
					{
						OFFSET -3.49802 0.75994 -0.32616
						CHANNELS 3 Zrotation Yrotation Xrotation
						JOINT RightForeArm
						{
							OFFSET -5.02649 -0.00000 0.00000
							CHANNELS 3 Zrotation Yrotation Xrotation
							JOINT RightHand
							{
								OFFSET -3.36431 -0.00000 0.00000
								CHANNELS 3 Zrotation Yrotation Xrotation
								JOINT RightFingerBase
								{
									OFFSET 0 0 0
									CHANNELS 3 Zrotation Yrotation Xrotation
									JOINT RightHandIndex1
									{
										OFFSET -0.73041 -0.00000 0.00000
										CHANNELS 3 Zrotation Yrotation Xrotation
										End Site
										{
											OFFSET -0.58887 -0.00000 0.00000
										}
									}
								}
								JOINT RThumb
								{
									OFFSET 0 0 0
									CHANNELS 3 Zrotation Yrotation Xrotation
									End Site
									{
										OFFSET -0.59786 -0.00000 0.59786
									}
								}
							}
						}
					}
				}
			}
		}
	}
}
MOTION
Frames: 12
Frame Time: 0.033333
10.4194 16.7048 -30.1003 0 0 0 0 0 0 -21 0 0 0 0 0 0 0 0 0 0 0 0 0 0 21 0 0 0 0 0 0 0 0 0 0 0 0 0 0 0 0 0 0 0 0 0 0 -16 0 0 21 0 0 11 0 0 0 -8 0 0 0 0 0 0 0 0 0 0 0 0 0 0 0 0 0 0 0 0 8 0 0 0 0 0 0 0 0 0 0 0 0 0 0 0 0 0
10.3951 16.6696 -29.5400 -2.4301 -10.1914 -2.6529 0.0000 0.0000 0.0000 -19.4977 -9.5091 -26.1027 1.5069 7.7532 21.9668 0.2153 8.4934 -15.5906 0.3478 -3.7891 -10.4841 0.0000 0.0000 0.0000 28.0052 -4.1585 17.8686 -0.3869 -3.9943 11.0605 -0.6122 6.5401 -14.0014 -0.0004 -0.1356 0.3726 5.7437 1.8237 7.1936 1.4497 2.7742 3.8189 -1.9080 1.4515 0.1276 1.3188 4.1299 -12.9178 -6.0907 5.5852 0.7061 -1.8694 2.5589 2.7344 0.0000 0.0000 0.0000 -97.1686 11.0657 -11.7891 10.2127 -17.0717 -1.5368 -0.0000 0.0000 -11.1137 23.4145 20.0743 8.4543 -7.1250 0.0000 -0.0000 -5.1159 51.6232 -0.8363 0.0000 0.0000 0.0000 79.4023 21.1280 39.1036 -26.8053 37.9929 -9.3790 0.0000 -0.0000 -16.0827 -27.0442 16.6537 -8.3234 7.1250 -0.0000 -0.0000 0.5164 -11.4154 0.4040
10.3458 16.5643 -28.7542 -2.4429 -10.2713 -2.3600 0.0000 0.0000 0.0000 -20.1938 -9.6281 -26.1838 2.1363 9.1444 26.2481 0.0074 9.1771 -13.2080 0.3505 -3.8037 -10.5252 0.0000 0.0000 0.0000 27.5585 -4.6795 19.2924 -0.5472 -4.7390 13.1656 -0.5725 6.7407 -13.5794 -0.2268 3.0651 -8.4600 4.9789 1.7934 5.9445 1.6578 2.6124 3.7369 -1.2137 1.3687 0.6739 0.8712 4.2384 -12.6639 -4.9882 5.6832 -0.5038 -1.4278 2.6696 2.2147 0.0000 0.0000 0.0000 -97.6980 10.6695 -11.8562 10.2239 -17.0890 -1.5401 -0.0000 0.0000 -11.1350 22.9393 20.5565 8.4527 -7.1250 0.0000 -0.0000 -5.7333 52.0475 -0.9975 0.0000 0.0000 0.0000 79.6476 20.8173 39.7632 -25.5811 36.7921 -8.6356 0.0000 -0.0000 -16.5425 -27.0443 16.2876 -8.1479 7.1250 -0.0000 -0.0000 0.4805 -11.8178 0.3719
10.2960 16.5225 -27.9723 -2.6204 -10.0637 -2.4568 0.0000 0.0000 0.0000 -20.1565 -10.0731 -26.3098 2.9760 10.6562 31.1288 -0.1514 10.6815 -12.5980 0.0033 0.3721 1.0225 0.0000 0.0000 0.0000 27.3964 -4.7930 19.4413 -1.0291 -6.4527 18.1038 -0.3673 6.3631 -11.0059 -0.8536 5.8924 -16.4725 4.9608 1.7331 5.7731 1.3685 2.5353 3.4101 -1.4992 1.3238 0.4388 0.7953 4.1299 -12.5776 -3.6706 5.4628 -1.5259 -1.0111 2.6155 1.7956 -0.0000 -0.0000 0.0000 -96.7912 9.7865 -12.1552 9.6667 -16.2166 -1.3804 -0.0000 0.0000 -8.8917 22.8242 20.4102 8.3497 -7.1250 0.0000 -0.0000 -5.8053 51.8731 -0.9852 -0.0000 -0.0000 0.0000 81.5233 19.2718 39.2678 -23.4735 34.6025 -7.4054 0.0000 -0.0000 -15.2939 -27.5035 17.0708 -8.6897 7.1250 -0.0000 -0.0000 0.2560 -10.8835 0.2031
10.2351 16.5316 -27.2485 -0.6231 -9.2823 -2.7474 0.0000 0.0000 0.0000 -23.0354 -9.3239 -25.4023 3.4676 11.4160 33.6961 0.0241 8.2135 -12.1802 0.0844 1.8741 5.1578 0.0000 0.0000 0.0000 25.0043 -3.6315 15.3984 -2.6556 -10.1154 29.3513 -0.0495 6.3423 -5.6431 -1.7123 8.2393 -23.4433 2.5829 1.6613 5.6534 0.7279 2.3315 3.1131 -0.8247 1.1887 0.1092 -0.6849 3.7988 -12.4044 -1.5876 5.1546 -2.4389 -0.1342 2.5352 1.3417 0.0000 -0.0000 0.0000 -95.9096 8.2748 -10.8144 9.3521 -15.7198 -1.2939 -0.0000 0.0000 -8.0742 22.8816 21.1759 8.6682 -7.1250 0.0000 -0.0000 -5.9813 52.6879 -1.1349 0.0000 -0.0000 0.0000 83.0923 17.2121 38.0273 -21.1184 31.9663 -6.1125 0.0000 -0.0000 -14.0510 -27.5441 17.2902 -8.8112 7.1250 -0.0000 -0.0000 0.2524 -10.6353 0.2015
10.2079 16.6059 -26.5320 -0.8312 -9.7152 -2.7621 0.0000 0.0000 0.0000 -23.4657 -8.5357 -23.6657 3.7885 11.8735 35.2859 0.1564 7.3456 -13.4274 0.1906 2.8114 7.7541 0.0000 0.0000 0.0000 24.5845 -1.0093 10.8416 -4.8114 -13.1682 40.0014 -0.0078 3.6840 5.5962 -2.3222 9.5073 -27.3955 2.9348 1.6604 5.5054 0.5621 2.3459 2.9016 -1.1913 1.1981 -0.0038 -1.0534 3.7794 -11.6598 -1.0677 5.1424 -3.7105 0.0522 2.5582 0.7757 -0.0000 -0.0000 0.0000 -95.1235 6.6137 -8.6917 9.5275 -15.9971 -1.3418 -0.0000 0.0000 -8.2188 22.1896 20.7633 8.2278 -7.1250 0.0000 -0.0000 -6.5504 52.1303 -1.1539 -0.0000 -0.0000 0.0000 84.6287 15.5256 37.9197 -18.3568 28.6116 -4.7189 0.0000 -0.0000 -13.6888 -27.7622 17.0735 -8.7855 7.1250 -0.0000 -0.0000 0.0863 -10.8385 0.0685
10.1910 16.6758 -25.8812 0.4243 -9.8568 -3.1201 0.0000 0.0000 0.0000 -25.6333 -7.6312 -20.3915 3.5763 11.5741 34.2416 0.3670 6.4110 -15.5724 0.1972 2.8594 7.8875 0.0000 0.0000 0.0000 22.8231 2.2790 5.5355 -7.7010 -15.8949 51.4784 -0.6486 -1.8319 14.6980 -3.1775 10.9769 -32.2021 1.7191 1.5427 5.8636 0.2282 2.1375 2.8744 -0.8558 1.0809 -0.2736 -0.7019 3.8883 -12.1357 -1.8371 5.2469 -3.8221 -0.2294 2.5897 0.8521 0.0000 0.0000 0.0000 -94.8249 4.5956 -4.0188 10.4464 -17.4348 -1.6061 -0.0000 0.0000 -11.1396 23.0495 20.2380 8.3731 -7.1250 0.0000 -0.0000 -5.5287 51.7316 -0.9188 0.0000 0.0000 0.0000 85.5330 14.0006 37.3329 -15.6104 24.9895 -3.4797 0.0000 -0.0000 -11.1125 -25.1490 17.1483 -7.8810 7.1250 -0.0000 -0.0000 1.8139 -11.1641 1.4291
10.1591 16.7399 -25.2710 1.9571 -9.2293 -3.5541 0.0000 0.0000 0.0000 -28.0141 -6.7470 -17.1557 3.2777 11.1316 32.7249 0.4848 5.6569 -16.4388 0.1854 2.7731 7.6478 0.0000 0.0000 0.0000 20.8927 4.6561 -0.3958 -10.6813 -17.7756 61.7423 -0.3621 -9.0048 11.6104 -2.3309 9.5237 -27.4475 0.0789 1.2289 6.0704 -0.1600 1.6318 3.1094 -0.3079 0.8155 -0.1961 -0.6690 4.2138 -12.3619 -2.2996 5.6803 -3.7520 -0.3528 2.7939 0.9310 -0.0000 0.0000 0.0000 -93.9753 2.5760 3.1790 11.9221 -19.6877 -2.0760 -0.0000 0.0000 -15.7324 23.9424 18.0461 7.8319 -7.1250 0.0000 -0.0000 -4.0729 49.5568 -0.4583 -0.0000 0.0000 0.0000 86.3432 12.6478 35.2927 -13.7704 22.4055 -2.7400 0.0000 -0.0000 -7.7156 -21.4104 16.2370 -6.2568 7.1250 -0.0000 -0.0000 4.2291 -12.6447 3.2098
10.1398 16.8395 -24.6379 2.0863 -8.7024 -3.9182 0.0000 0.0000 0.0000 -28.9443 -5.4967 -13.6854 2.9936 10.6847 31.2239 0.6134 5.1200 -17.5425 0.0650 1.6452 4.5260 0.0000 0.0000 0.0000 20.3382 6.6613 -5.5549 -12.6802 -18.6636 68.1292 0.3465 -12.9808 3.5907 -1.1040 6.6761 -18.7593 -0.1071 1.0272 6.1978 -0.0529 1.3542 3.2770 -0.0774 0.6738 -0.1029 -0.4664 4.1902 -11.7623 -3.1338 5.5972 -4.5975 -0.6715 2.7500 0.5924 0.0000 0.0000 0.0000 -93.4134 0.7812 9.1279 13.9593 -22.6765 -2.8124 -0.0000 0.0000 -17.3235 23.0181 19.3916 8.0291 -7.1250 0.0000 -0.0000 -5.3223 50.8331 -0.7668 0.0000 0.0000 0.0000 86.8143 10.2983 32.1858 -12.4570 20.4864 -2.2597 0.0000 -0.0000 -5.1144 -20.2443 16.7270 -6.0591 7.1250 -0.0000 -0.0000 5.0340 -12.2705 3.8645
10.1272 16.9077 -24.0001 2.1763 -6.7675 -4.0968 0.0000 0.0000 0.0000 -29.9008 -5.1445 -9.8841 2.6690 10.1390 29.4279 0.7126 4.6992 -18.3366 0.0140 0.7641 2.1000 0.0000 0.0000 0.0000 19.6071 8.0741 -10.4853 -13.7061 -19.0225 71.3049 0.7438 -15.1370 -4.0390 -0.4691 4.3927 -12.1842 -0.2936 0.3015 5.8893 0.1461 0.3823 3.3630 0.2930 0.1839 0.1542 -0.8628 4.2488 -11.4136 -2.9242 5.7263 -4.3384 -0.5407 2.8228 0.5984 -0.0000 0.0000 0.0000 -92.7819 -0.4840 15.5202 16.7114 -26.4757 -3.9578 -0.0000 0.0000 -20.9375 23.9073 21.3340 9.1613 -7.1250 0.0000 -0.0000 -4.9849 53.0450 -0.9886 -0.0000 0.0000 0.0000 86.7650 7.1563 30.5865 -11.8387 19.5623 -2.0480 0.0000 -0.0000 -5.2332 -21.4946 16.5975 -6.4181 7.1250 -0.0000 -0.0000 4.1945 -12.2532 3.2176
10.0925 16.9674 -23.4110 1.8222 -4.5771 -3.7973 0.0000 0.0000 0.0000 -30.0695 -5.8165 -7.0417 2.5042 9.8455 28.4779 0.8786 3.9578 -19.5650 0.0128 0.7300 2.0063 0.0000 0.0000 0.0000 19.3477 10.4237 -15.2103 -13.7361 -19.0320 71.3969 0.7898 -16.0553 -10.4744 -0.2200 3.0195 -8.3330 -0.2648 -0.1387 5.9577 0.3431 -0.1997 3.3361 0.5121 -0.1077 0.0936 -0.4195 3.9795 -12.3137 -3.1973 5.3573 -3.3294 -0.6838 2.6065 1.0960 -0.0000 0.0000 0.0000 -91.7190 -2.5284 21.5638 19.8090 -30.4115 -5.4343 -0.0000 0.0000 -23.7354 23.5201 23.2794 9.7599 -7.1250 0.0000 -0.0000 -6.0307 55.0160 -1.4873 -0.0000 0.0000 0.0000 86.9667 3.5325 28.5663 -11.8621 19.5976 -2.0558 0.0000 -0.0000 -7.4518 -22.7966 17.3876 -7.1587 7.1250 -0.0000 -0.0000 3.3851 -11.2438 2.6649
10.0568 16.9529 -22.8034 1.9403 -2.8247 -3.8326 0.0000 0.0000 0.0000 -30.5961 -5.4986 -4.2140 2.3988 9.6516 27.8558 1.0000 2.9334 -20.1625 0.0151 0.7932 2.1798 0.0000 0.0000 0.0000 18.2939 13.3454 -18.4326 -12.7080 -18.6742 68.2162 0.4004 -13.7098 -13.6008 -0.4758 4.4238 -12.2722 -0.7925 -0.5357 5.9515 0.5205 -0.7523 3.3707 1.0215 -0.3925 0.1485 -0.5984 3.7769 -11.8603 -2.7460 5.0992 -3.4819 -0.5355 2.4955 0.9460 0.0000 0.0000 0.0000 -90.7949 -3.9641 26.5947 23.4610 -34.5891 -7.3983 -0.0000 0.0000 -25.3906 22.9926 20.0601 8.2810 -7.1250 0.0000 -0.0000 -5.5344 51.5342 -0.8930 0.0000 0.0000 0.0000 87.0277 -0.2795 26.9356 -12.0252 19.8424 -2.1108 0.0000 -0.0000 -8.0147 -21.2159 12.8236 -4.9244 7.1250 -0.0000 -0.0000 4.1961 -16.2821 2.8591
